<?xml version="1.0" encoding="iso-8859-1"?>
<!-- Generator: Adobe Illustrator 19.0.0, SVG Export Plug-In . SVG Version: 6.00 Build 0)  -->
<svg version="1.1" id="Layer_1" xmlns="http://www.w3.org/2000/svg" xmlns:xlink="http://www.w3.org/1999/xlink" x="0px" y="0px"
	 viewBox="0 0 496.2 496.2" style="enable-background:new 0 0 496.2 496.2;" xml:space="preserve">
<path style="fill:#65A844;" d="M0,248.1C0,111.1,111.1,0,248.1,0s248.1,111.1,248.1,248.1S385.1,496.2,248.1,496.2S0,385.1,0,248.1z
	"/>
<g>
	<path style="fill:#3A3A3A;" d="M118.6,314.2c0,1.7-1,3-2.3,3h-10c-1.3,0-2.3-1.4-2.3-3l-2.2-12.8c0-1.7,1.4-3,3-3h13
		c1.7,0,3,1.4,3,3L118.6,314.2z"/>
	<path style="fill:#3A3A3A;" d="M88.3,312.2c0,1.7-1,3-2.3,3H76c-1.3,0-2.3-1.4-2.3-3l-2.2-12.8c0-1.7,1.4-3,3-3h13c1.7,0,3,1.4,3,3
		L88.3,312.2z"/>
	<path style="fill:#3A3A3A;" d="M342.9,314.6c0.1,1.7-0.9,3.1-2.2,3.1l-10,0.4c-1.3,0-2.4-1.3-2.4-3l-2.7-12.7
		c-0.1-1.7,1.2-3.1,2.9-3.2l13-0.5c1.7-0.1,3.1,1.2,3.1,2.9L342.9,314.6z"/>
	<path style="fill:#3A3A3A;" d="M308.5,314.2c0,1.7-1,3-2.3,3h-10c-1.3,0-2.3-1.4-2.3-3l-2.2-12.8c0-1.7,1.4-3,3-3h13
		c1.7,0,3,1.4,3,3L308.5,314.2z"/>
	<path style="fill:#3A3A3A;" d="M407.9,303.4c0.3,1.7-0.5,3.2-1.7,3.4l-9.8,1.9c-1.3,0.2-2.5-0.9-2.9-2.6l-4.5-12.2
		c-0.3-1.6,0.8-3.2,2.4-3.6l12.8-2.4c1.6-0.3,3.2,0.8,3.6,2.4L407.9,303.4z"/>
	<path style="fill:#3A3A3A;" d="M378.3,309.8c0.2,1.7-0.7,3.1-2,3.3l-9.9,1.2c-1.3,0.2-2.5-1.1-2.7-2.7l-3.7-12.5
		c-0.2-1.7,1-3.2,2.7-3.4l12.9-1.6c1.7-0.2,3.2,1,3.4,2.7L378.3,309.8z"/>
</g>
<path style="fill:#206982;" d="M68,209.1c-0.2,0-0.4,0-0.5,0C67.7,209.1,67.9,209.1,68,209.1z"/>
<path style="fill:#3A3A3A;" d="M211.1,190c-3.3,4.6-31.8,38.5-53.9,43c-23.2,4.8-67.5-4.2-73-6.5c-5.5-2.2-18.9-9.6-19.9-14.2
	c-0.5-2.3,1.7-3.2,3.1-3.3c0.2,0,0.3,0,0.5,0c0,0,31,6.9,56.2,5.7c0,0,61.9-6.3,84.1-25.5C208.4,189.3,213.8,187.4,211.1,190z"/>
<path style="fill:#545454;" d="M57.4,219.7c0,0-5.3-10.4,10.1-10.6c-1.4,0.1-3.6,1-3.1,3.3c1,4.6,14.4,12,19.9,14.2
	s49.7,11.2,73,6.5c22.1-4.6,47.1-38.5,50.4-43c2.6-2.6,7.7-4.7,14.8-8.4s16-3.5,16-3.5l136,62.6c0,0,10.3,4.6,25.8,4
	c0,0,39.6-1.2,48.8,19.8c0,0-14.6,22.3-60.1,30.8c0,0-338.6,28.2-340.7-6.7c-0.1-2.4-0.3-5-0.3-7.8
	C47.9,280.8,42.8,242.9,57.4,219.7z"/>
<g>
	<path style="fill:#FFFFFF;" d="M195.3,292.4c7.3,0.1,14.2,0.2,19.9,0.2l38.5-63.9l-14.9-7.7L195.3,292.4z"/>
	<path style="fill:#FFFFFF;" d="M222.1,292.8c5.1,0.1,8.3,0.1,8.3,0.1c3.2,0.4,6.9,0.8,11,1.1l32.3-54.8l-14.9-7.7L222.1,292.8z"/>
	<path style="fill:#FFFFFF;" d="M247.9,294.4c6,0.4,12.7,0.6,19.5,0.8l26.2-45.8l-14.9-7.7L247.9,294.4z"/>
</g>
<path style="fill:#232323;" d="M261.9,190.2l-26,5.7l0,0c0.6-0.1,1.2-0.4,1.7-0.9l8.7-8.5l7.2-1.6l8.7,4L261.9,190.2z"/>
<g>
	<path style="fill:#F4F4F4;" d="M258,209.2c0,0.1,0,0.2,0,0.3C258,209.4,258,209.3,258,209.2z"/>
	<path style="fill:#F4F4F4;" d="M262.4,212.4h0.1C262.4,212.4,262.4,212.4,262.4,212.4z"/>
	<path style="fill:#F4F4F4;" d="M259.7,212.1c0.1,0,0.1,0.1,0.2,0.1C259.9,212.2,259.8,212.2,259.7,212.1z"/>
	<path style="fill:#F4F4F4;" d="M258.1,208.5c0,0.1,0,0.3,0,0.4C258,208.7,258,208.6,258.1,208.5z"/>
	<path style="fill:#F4F4F4;" d="M260.5,212.4c0.1,0,0.1,0,0.2,0.1C260.6,212.5,260.5,212.5,260.5,212.4z"/>
	<path style="fill:#F4F4F4;" d="M258.3,210.5c0,0.1,0.1,0.2,0.1,0.2C258.3,210.6,258.3,210.5,258.3,210.5z"/>
	<path style="fill:#F4F4F4;" d="M259.1,211.7c0.1,0.1,0.1,0.1,0.2,0.2C259.2,211.8,259.2,211.7,259.1,211.7z"/>
	<path style="fill:#F4F4F4;" d="M258.1,209.8c0,0.1,0.1,0.2,0.1,0.3C258.1,210,258.1,209.9,258.1,209.8z"/>
	<path style="fill:#F4F4F4;" d="M258.6,211.1L258.6,211.1l0.1,0.1L258.6,211.1z"/>
</g>
<g>
	<path style="fill:#232323;" d="M280.5,200.1L263.4,212h-0.1c0.7-0.5,1.3-1.2,1.5-2.2l1.8-8.5l9-6.2l5.2,2.4L280.5,200.1z"/>
	<path style="fill:#232323;" d="M302,211.5L283.7,225c0,0,0,0-0.1,0c0.8-0.6,1.3-1.4,1.4-2.5l0.8-7.8l12.5-9.2l4.2,1.9L302,211.5z"
		/>
</g>
<g>
	<path style="fill:#F4F4F4;" d="M278.3,222.8c0,0.1,0,0.2,0.1,0.3C278.3,223.1,278.3,223,278.3,222.8z"/>
	<path style="fill:#F4F4F4;" d="M280.1,225.3c0.1,0,0.2,0.1,0.2,0.1C280.2,225.4,280.2,225.4,280.1,225.3z"/>
	<path style="fill:#F4F4F4;" d="M278.5,223.5c0,0.1,0.1,0.2,0.1,0.3C278.5,223.7,278.5,223.6,278.5,223.5z"/>
	<path style="fill:#F4F4F4;" d="M282.6,225.6c0.1,0,0.1,0,0.2,0C282.7,225.5,282.7,225.5,282.6,225.6z"/>
	<path style="fill:#F4F4F4;" d="M281.7,225.7L281.7,225.7L281.7,225.7z"/>
	<path style="fill:#F4F4F4;" d="M278.2,222.1c0,0.1,0,0.3,0,0.4C278.2,222.4,278.2,222.3,278.2,222.1z"/>
	<path style="fill:#F4F4F4;" d="M278.9,224.3c0-0.1-0.1-0.1-0.1-0.2C278.8,224.2,278.9,224.3,278.9,224.3
		C278.9,224.4,278.9,224.3,278.9,224.3z"/>
	<path style="fill:#F4F4F4;" d="M279.5,224.9C279.5,224.9,279.5,225,279.5,224.9C279.5,225,279.5,224.9,279.5,224.9z"/>
	<path style="fill:#F4F4F4;" d="M280.8,225.6c0.1,0,0.2,0,0.3,0.1C281,225.6,280.9,225.6,280.8,225.6z"/>
	<path style="fill:#F4F4F4;" d="M299.3,232.2c0,0.1,0.1,0.2,0.1,0.3C299.4,232.4,299.3,232.3,299.3,232.2z"/>
</g>
<path style="fill:#232323;" d="M323.6,220.2l-19.1,13.7h-0.1c0.8-0.5,1.3-1.3,1.5-2.3l1.2-8.1l11.8-8.5l4.6,2.1L323.6,220.2z"/>
<g>
	<path style="fill:#F4F4F4;" d="M299.7,233.1c0-0.1-0.1-0.1-0.1-0.2C299.7,233,299.7,233.1,299.7,233.1L299.7,233.1z"/>
	<path style="fill:#F4F4F4;" d="M300.3,233.7c0.1,0.1,0.1,0.1,0.2,0.1C300.4,233.8,300.3,233.7,300.3,233.7z"/>
	<path style="fill:#F4F4F4;" d="M302.5,234.5L302.5,234.5L302.5,234.5z"/>
	<path style="fill:#F4F4F4;" d="M300.9,234.1c0.1,0,0.2,0.1,0.3,0.1C301.1,234.2,301,234.2,300.9,234.1z"/>
	<path style="fill:#F4F4F4;" d="M301.6,234.4c0.1,0,0.2,0.1,0.3,0.1C301.8,234.4,301.7,234.4,301.6,234.4z"/>
	<path style="fill:#F4F4F4;" d="M303.5,234.4c0.1,0,0.1,0,0.2,0C303.6,234.4,303.5,234.4,303.5,234.4z"/>
	<path style="fill:#F4F4F4;" d="M299.1,230.8c0,0.1,0,0.3,0,0.4C299.1,231.1,299.1,231,299.1,230.8z"/>
	<path style="fill:#F4F4F4;" d="M299.1,231.6c0,0.1,0,0.2,0.1,0.3C299.2,231.8,299.2,231.7,299.1,231.6z"/>
</g>
<path style="fill:#232323;" d="M349.6,230.3l-21.8,16.1l0,0c0.9-0.7,1.4-1.7,1.4-2.9l-2.2-5.6l16.4-11.6l6,2.8L349.6,230.3z"/>
<g>
	<path style="fill:#F4F4F4;" d="M328.9,247.9c0.1,0,0.1,0,0.2-0.1C329,247.9,329,247.9,328.9,247.9z"/>
	<path style="fill:#F4F4F4;" d="M324.5,244.8c0,0.2,0,0.3,0.1,0.5C324.5,245.1,324.5,244.9,324.5,244.8z"/>
	<path style="fill:#F4F4F4;" d="M326.3,247.7c0.1,0,0.2,0.1,0.2,0.1C326.4,247.7,326.3,247.7,326.3,247.7z"/>
	<path style="fill:#F4F4F4;" d="M327.9,248.1L327.9,248.1L327.9,248.1z"/>
	<path style="fill:#F4F4F4;" d="M325.7,247.2c0.1,0.1,0.1,0.1,0.2,0.2C325.8,247.3,325.7,247.3,325.7,247.2z"/>
	<path style="fill:#F4F4F4;" d="M327,248c0.1,0,0.1,0,0.2,0.1C327.1,248,327.1,248,327,248z"/>
	<path style="fill:#F4F4F4;" d="M324.6,245.5v0.1C324.6,245.5,324.6,245.5,324.6,245.5z"/>
	<path style="fill:#F4F4F4;" d="M324.8,246.1c0,0,0,0.1,0.1,0.1C324.8,246.2,324.8,246.1,324.8,246.1z"/>
	<path style="fill:#F4F4F4;" d="M325.2,246.7L325.2,246.7L325.2,246.7L325.2,246.7z"/>
</g>
<path style="fill:#232323;" d="M355.7,257.9c0.4-0.6,0.5-1.4,0.4-2.2l-1.4-10.6l5.8-10.9l6.3,2.9L355.7,257.9
	C355.8,257.9,355.7,257.9,355.7,257.9z"/>
<path style="fill:#F4F4F4;" d="M355.7,259.8c0,0.1,0,0.2,0.1,0.3C355.7,260,355.7,259.9,355.7,259.8z"/>
<path style="fill:#3A3A3A;" d="M236.6,194.5c0-0.1,0-0.2,0-0.3s0.1-0.2,0.1-0.3s0.1-0.2,0.1-0.3s0.1-0.2,0.2-0.3
	c0.1-0.1,0.1-0.2,0.2-0.3c0.1-0.1,0.1-0.2,0.2-0.2c0.1-0.1,0.2-0.2,0.2-0.3c0,0,0,0,0-0.1l10.2-9.9l6.7,3.1l-3.4,3.3l-8.7,8.5
	c-0.5,0.5-1.1,0.8-1.7,0.9c-0.2,0-0.5,0.1-0.7,0.1s-0.4,0-0.6-0.1c-0.1,0-0.1,0-0.2-0.1c-0.1,0-0.3-0.1-0.4-0.1
	c-0.1,0-0.2-0.1-0.2-0.1c-0.1-0.1-0.2-0.1-0.3-0.2c-0.1,0-0.1-0.1-0.2-0.1c-0.1-0.1-0.2-0.2-0.3-0.3c-0.1,0-0.1-0.1-0.1-0.1
	c-0.1-0.2-0.3-0.3-0.4-0.5l0,0c-0.1-0.2-0.2-0.4-0.3-0.6c0-0.1,0-0.2-0.1-0.2c0-0.1-0.1-0.2-0.1-0.4c0-0.1,0-0.3,0-0.4
	c0-0.1,0-0.2,0-0.3C236.6,194.7,236.6,194.6,236.6,194.5z"/>
<g>
	<path style="fill:#E0E1E2;" d="M258.7,211.2c0.1,0.2,0.3,0.3,0.4,0.4C258.9,211.5,258.8,211.4,258.7,211.2z"/>
	<path style="fill:#E0E1E2;" d="M260.7,212.5L260.7,212.5c0.2,0,0.5,0.1,0.7,0.1C261.2,212.6,261,212.6,260.7,212.5z"/>
	<path style="fill:#E0E1E2;" d="M259.3,211.8c0.1,0.1,0.3,0.2,0.4,0.3C259.6,212,259.4,211.9,259.3,211.8z"/>
	<path style="fill:#E0E1E2;" d="M259.9,212.2c0.2,0.1,0.3,0.1,0.5,0.2C260.3,212.4,260.1,212.3,259.9,212.2z"/>
	<path style="fill:#E0E1E2;" d="M258,209.5c0,0.1,0,0.2,0,0.3C258,209.7,258,209.6,258,209.5z"/>
	<path style="fill:#E0E1E2;" d="M258,208.9c0,0.1,0,0.2,0,0.3C258,209.1,258,209,258,208.9z"/>
	<path style="fill:#E0E1E2;" d="M261.4,212.6c0.3,0,0.6-0.1,0.9-0.1C262.1,212.5,261.7,212.6,261.4,212.6z"/>
	<path style="fill:#E0E1E2;" d="M262.5,212.4c0.3-0.1,0.6-0.2,0.8-0.4C263.1,212.2,262.8,212.3,262.5,212.4z"/>
	<path style="fill:#E0E1E2;" d="M258.4,210.7c0.1,0.1,0.1,0.2,0.2,0.4C258.5,210.9,258.4,210.8,258.4,210.7z"/>
	<path style="fill:#E0E1E2;" d="M258.1,210.1c0,0.1,0.1,0.2,0.1,0.4C258.2,210.4,258.2,210.2,258.1,210.1z"/>
</g>
<path style="fill:#3A3A3A;" d="M263.9,189.8l-1.7-0.8l-0.3,1.2l-3.8,18.2c0,0,0,0,0,0.1s0,0.3,0,0.4c0,0.1,0,0.2,0,0.3s0,0.2,0,0.3
	s0,0.2,0,0.3s0.1,0.2,0.1,0.3s0.1,0.2,0.1,0.4c0,0.1,0.1,0.2,0.1,0.2c0.1,0.1,0.1,0.2,0.2,0.4c0,0.1,0.1,0.1,0.1,0.1
	c0.1,0.2,0.3,0.3,0.4,0.4c0.1,0.1,0.1,0.1,0.2,0.2c0.1,0.1,0.3,0.2,0.4,0.3c0.1,0,0.1,0.1,0.2,0.1c0.2,0.1,0.3,0.1,0.5,0.2
	c0.1,0,0.1,0,0.2,0.1c0.3,0.1,0.5,0.1,0.8,0.1s0.6-0.1,0.9-0.1h0.1c0.3-0.1,0.6-0.2,0.8-0.4c0.7-0.5,1.3-1.2,1.5-2.2l1.8-8.5l2-9.4
	L263.9,189.8z"/>
<g>
	<path style="fill:#E0E1E2;" d="M280.3,225.4c0.1,0.1,0.3,0.1,0.4,0.2C280.6,225.5,280.5,225.5,280.3,225.4z"/>
	<path style="fill:#E0E1E2;" d="M279.5,225c0.2,0.1,0.3,0.2,0.5,0.3C279.9,225.2,279.7,225.1,279.5,225z"/>
	<path style="fill:#E0E1E2;" d="M278.6,223.8c0.1,0.1,0.1,0.2,0.2,0.3C278.7,224,278.6,223.9,278.6,223.8z"/>
	<path style="fill:#E0E1E2;" d="M278.9,224.4c0.2,0.2,0.3,0.4,0.5,0.5C279.3,224.8,279.1,224.6,278.9,224.4z"/>
	<path style="fill:#E0E1E2;" d="M281.3,225.7c-0.1,0-0.2,0-0.2-0.1c0.2,0,0.4,0.1,0.6,0.1C281.5,225.7,281.4,225.7,281.3,225.7z"/>
	<path style="fill:#E0E1E2;" d="M281.7,225.7L281.7,225.7c0.3,0,0.6-0.1,1-0.2C282.3,225.7,282,225.7,281.7,225.7z"/>
	<path style="fill:#E0E1E2;" d="M278.2,222.5c0,0.1,0,0.2,0,0.3C278.3,222.7,278.2,222.6,278.2,222.5z"/>
	<path style="fill:#E0E1E2;" d="M282.8,225.5c0.3-0.1,0.6-0.3,0.9-0.4C283.4,225.3,283.1,225.4,282.8,225.5z"/>
	<path style="fill:#E0E1E2;" d="M278.3,223.2c0,0.1,0.1,0.2,0.1,0.3C278.4,223.4,278.4,223.3,278.3,223.2z"/>
</g>
<path style="fill:#3A3A3A;" d="M280.7,197.5l-2.5,24.4c0,0.1,0,0.1,0,0.2c0,0.1,0,0.3,0,0.4c0,0.1,0,0.2,0,0.3s0,0.2,0.1,0.3
	c0,0.1,0.1,0.2,0.1,0.3s0.1,0.2,0.1,0.3c0.1,0.1,0.1,0.2,0.2,0.3s0.1,0.2,0.2,0.3c0.2,0.2,0.3,0.4,0.5,0.5c0,0,0.1,0,0.1,0.1
	c0.2,0.1,0.3,0.2,0.5,0.3c0.1,0,0.2,0.1,0.2,0.1c0.1,0.1,0.3,0.1,0.4,0.2c0.1,0,0.2,0,0.3,0.1c0.2,0,0.4,0.1,0.6,0.1l0,0
	c0.3,0,0.6-0.1,1-0.2c0.1,0,0.1,0,0.2,0c0.3-0.1,0.6-0.3,0.9-0.4c0.8-0.6,1.3-1.4,1.4-2.5l2.3-22.1L280.7,197.5z"/>
<g>
	<path style="fill:#E0E1E2;" d="M299.7,233.1c0.2,0.2,0.3,0.4,0.5,0.6C300.1,233.5,299.9,233.3,299.7,233.1z"/>
	<path style="fill:#E0E1E2;" d="M299.4,232.5c0.1,0.1,0.1,0.3,0.2,0.4C299.6,232.8,299.5,232.7,299.4,232.5z"/>
	<path style="fill:#E0E1E2;" d="M299.1,231.2c0,0.1,0,0.2,0,0.3C299.1,231.5,299.1,231.3,299.1,231.2z"/>
	<path style="fill:#E0E1E2;" d="M299.2,231.9c0,0.1,0.1,0.2,0.1,0.3C299.3,232.1,299.2,232,299.2,231.9z"/>
	<path style="fill:#E0E1E2;" d="M303.6,234.4c0.3-0.1,0.6-0.2,0.8-0.4C304.2,234.1,303.9,234.3,303.6,234.4z"/>
	<path style="fill:#E0E1E2;" d="M300.5,233.8c0.1,0.1,0.3,0.2,0.4,0.3C300.7,234,300.6,233.9,300.5,233.8z"/>
	<path style="fill:#E0E1E2;" d="M302.5,234.5L302.5,234.5c0.3,0,0.6-0.1,0.9-0.1C303.2,234.5,302.9,234.5,302.5,234.5z"/>
	<path style="fill:#E0E1E2;" d="M301.1,234.2c0.1,0.1,0.3,0.1,0.4,0.2C301.4,234.3,301.3,234.3,301.1,234.2z"/>
	<path style="fill:#E0E1E2;" d="M302,234.5c-0.1,0-0.1,0-0.2,0c0.2,0,0.4,0.1,0.7,0.1C302.4,234.5,302.2,234.5,302,234.5z"/>
</g>
<path style="fill:#3A3A3A;" d="M305.5,208.9l-2.9-1.3l-0.6,3.9l-2.9,19.1c0,0.1,0,0.2,0,0.2c0,0.1,0,0.3,0,0.4c0,0.1,0,0.2,0,0.3
	s0,0.2,0.1,0.3c0,0.1,0.1,0.2,0.1,0.3s0.1,0.2,0.1,0.3c0.1,0.1,0.1,0.3,0.2,0.4c0,0.1,0.1,0.1,0.1,0.2c0.2,0.2,0.3,0.4,0.5,0.6
	c0.1,0.1,0.1,0.1,0.2,0.1c0.1,0.1,0.3,0.2,0.4,0.3c0.1,0,0.2,0.1,0.3,0.1c0.1,0.1,0.3,0.1,0.4,0.2c0.1,0,0.2,0.1,0.3,0.1
	c0.2,0,0.4,0.1,0.7,0.1l0,0c0.3,0,0.6-0.1,0.9-0.1c0.1,0,0.1,0,0.2,0c0.3-0.1,0.6-0.2,0.8-0.4c0.8-0.5,1.3-1.3,1.5-2.3l1.2-8.1
	l1.9-13L305.5,208.9z"/>
<g>
	<path style="fill:#E0E1E2;" d="M327.9,248.1c-0.3,0-0.5,0-0.7-0.1C327.4,248.1,327.7,248.1,327.9,248.1L327.9,248.1z"/>
	<path style="fill:#E0E1E2;" d="M324.9,246.2c0.1,0.2,0.2,0.3,0.3,0.5C325,246.5,324.9,246.4,324.9,246.2z"/>
	<path style="fill:#E0E1E2;" d="M325.2,246.8c0.1,0.2,0.3,0.3,0.4,0.4C325.5,247.1,325.4,246.9,325.2,246.8z"/>
	<path style="fill:#E0E1E2;" d="M326.5,247.8c0.2,0.1,0.3,0.1,0.5,0.2C326.8,247.9,326.7,247.9,326.5,247.8z"/>
	<path style="fill:#E0E1E2;" d="M329.1,247.9c0.3-0.1,0.6-0.2,0.9-0.5C329.7,247.6,329.4,247.8,329.1,247.9z"/>
	<path style="fill:#E0E1E2;" d="M328,248.1h-0.1c0.3,0,0.7-0.1,1-0.2C328.6,248,328.3,248.1,328,248.1z"/>
	<path style="fill:#E0E1E2;" d="M324.6,245.3c0,0.1,0,0.1,0,0.2C324.6,245.4,324.6,245.3,324.6,245.3z"/>
	<path style="fill:#E0E1E2;" d="M324.6,245.6c0,0.2,0.1,0.3,0.2,0.5C324.7,245.9,324.7,245.7,324.6,245.6z"/>
	<path style="fill:#E0E1E2;" d="M325.9,247.4c0.1,0.1,0.3,0.2,0.4,0.3C326.1,247.6,326,247.5,325.9,247.4z"/>
</g>
<g>
	<path style="fill:#3A3A3A;" d="M328.4,219.3l-3.1-1.3l-1.8-0.8v0.1l-2.1-0.9l0.9,27.3l0,0c0-1.1,0.4-2.2,1.4-2.9l5.3-2L328.4,219.3
		z"/>
	<path style="fill:#3A3A3A;" d="M356.2,255.7l-1.4-10.6l-2-14.4h-0.1h0.1l-1.1-0.5v0.1l-5.1-2.3l-1,0.7l3.8,28.1
		c0,0.1,0,0.2,0.1,0.3c0,0.1,0,0.2,0.1,0.3c0,0.1,0.1,0.3,0.2,0.4c0,0.1,0,0.1,0.1,0.2c0.1,0.2,0.2,0.4,0.4,0.5l0.1,0.1
		c0.1,0.1,0.2,0.3,0.4,0.4c0.1,0,0.1,0.1,0.2,0.1c0.1,0.1,0.2,0.2,0.3,0.2c0.1,0,0.1,0.1,0.2,0.1c0.2,0.1,0.4,0.2,0.5,0.2
		s0.1,0,0.2,0.1c0.2,0.1,0.5,0.1,0.7,0.1l0,0c0.3,0,0.5,0,0.8-0.1c0.1,0,0.2,0,0.2-0.1c0.3-0.1,0.5-0.2,0.7-0.3l0,0
		c0.2-0.1,0.4-0.3,0.6-0.5c0.1-0.1,0.1-0.1,0.2-0.2c0.2-0.2,0.3-0.4,0.4-0.6C356.1,257.3,356.3,256.5,356.2,255.7z"/>
</g>
<circle style="fill:#434444;" cx="352" cy="255.7" r="5.7"/>
<circle style="fill:#232323;" cx="352" cy="255.7" r="3.4"/>
<circle style="fill:#434444;" cx="326.2" cy="243.1" r="5.7"/>
<circle style="fill:#232323;" cx="326.2" cy="243.1" r="3.4"/>
<circle style="fill:#434444;" cx="302" cy="232" r="5.7"/>
<path style="fill:#232323;" d="M305.4,232c0-1.9-1.5-3.4-3.4-3.4s-3.4,1.5-3.4,3.4s1.5,3.4,3.4,3.4
	C303.9,235.4,305.4,233.9,305.4,232z"/>
<circle style="fill:#434444;" cx="280.9" cy="222.1" r="5.7"/>
<circle style="fill:#232323;" cx="280.9" cy="222.1" r="3.4"/>
<circle style="fill:#434444;" cx="260.4" cy="209.9" r="5.7"/>
<circle style="fill:#232323;" cx="260.4" cy="209.9" r="3.4"/>
<circle style="fill:#434444;" cx="239.3" cy="197" r="5.7"/>
<circle style="fill:#232323;" cx="239.3" cy="197" r="3.4"/>
<path style="fill:#3A3A3A;" d="M48.2,288.6h0.5c4.3,5.2,18.9,4.3,18.9,4.3c7.7,0.9,76.6-0.9,76.6-0.9c22.4,0,86.1,0.9,86.1,0.9
	c32.7,4.3,117.1,2.6,117.1,2.6c72.3-3.4,101.6-30.1,101.6-30.1v7.9c0,0,2.6,8.6-28.4,18.9c0,0-43,12.1-75.8,14.6
	c0,0-43,4.3-76.6,1.7c0,0-31.9-0.9-78.3-1.7c0,0-49.9,0-62.8,0s-49.9,0-65.4-2.6C61.7,304.2,48.5,303.2,48.2,288.6"/>
<g>
</g>
<g>
</g>
<g>
</g>
<g>
</g>
<g>
</g>
<g>
</g>
<g>
</g>
<g>
</g>
<g>
</g>
<g>
</g>
<g>
</g>
<g>
</g>
<g>
</g>
<g>
</g>
<g>
</g>
</svg>
